<svg id="visual" viewBox="0 0 960 540" width="960" height="540" xmlns="http://www.w3.org/2000/svg" xmlns:xlink="http://www.w3.org/1999/xlink" version="1.1"><rect x="0" y="0" width="960" height="540" fill="#2e3a46"></rect><defs><linearGradient id="grad1_0" x1="43.8%" y1="0%" x2="100%" y2="100%"><stop offset="14.444444444444446%" stop-color="#2e3a46" stop-opacity="1"></stop><stop offset="85.55555555555554%" stop-color="#2e3a46" stop-opacity="1"></stop></linearGradient></defs><defs><linearGradient id="grad2_0" x1="0%" y1="0%" x2="56.3%" y2="100%"><stop offset="14.444444444444446%" stop-color="#2e3a46" stop-opacity="1"></stop><stop offset="85.55555555555554%" stop-color="#2e3a46" stop-opacity="1"></stop></linearGradient></defs><g transform="translate(960, 0)"><path d="M0 486C-53.1 456.3 -106.2 426.5 -169.1 408.4C-232.1 390.2 -305 383.6 -343.7 343.7C-382.3 303.7 -386.6 230.4 -404.7 167.6C-422.7 104.8 -454.3 52.4 -486 0L0 0Z" fill="#28323d"></path></g><g transform="translate(0, 540)"><path d="M0 -486C63.3 -478.7 126.7 -471.4 186 -449C245.3 -426.6 300.6 -389 341.5 -341.5C382.4 -294.1 408.9 -236.9 430.5 -178.3C452.2 -119.8 469.1 -59.9 486 0L0 0Z" fill="#28323d"></path></g></svg>