<svg id="visual" viewBox="0 0 960 540" width="960" height="540" xmlns="http://www.w3.org/2000/svg" xmlns:xlink="http://www.w3.org/1999/xlink" version="1.1"><g stroke-width="1" stroke-linejoin="bevel"><path d="M551.6 285L405.4 259L534.6 387Z" fill="#2c3742" stroke="#2c3742"></path><path d="M405.4 259L431.4 423L534.6 387Z" fill="#2c3742" stroke="#2c3742"></path><path d="M551.6 285L543.6 144L405.4 259Z" fill="#2c3742" stroke="#2c3742"></path><path d="M543.6 144L395.4 132L405.4 259Z" fill="#29333e" stroke="#29333e"></path><path d="M395.4 132L266.3 266L405.4 259Z" fill="#2d3844" stroke="#2d3844"></path><path d="M405.4 259L271.3 424L431.4 423Z" fill="#2a3540" stroke="#2a3540"></path><path d="M266.3 266L271.3 424L405.4 259Z" fill="#2d3945" stroke="#2d3945"></path><path d="M431.4 423L535.6 540L534.6 387Z" fill="#2a3540" stroke="#2a3540"></path><path d="M703.7 424L704.7 260L551.6 285Z" fill="#29333e" stroke="#29333e"></path><path d="M400.4 540L535.6 540L431.4 423Z" fill="#2c3742" stroke="#2c3742"></path><path d="M271.3 424L400.4 540L431.4 423Z" fill="#29343f" stroke="#29343f"></path><path d="M703.7 424L551.6 285L534.6 387Z" fill="#2a343f" stroke="#2a343f"></path><path d="M551.6 285L675.7 140L543.6 144Z" fill="#2d3945" stroke="#2d3945"></path><path d="M535.6 540L703.7 424L534.6 387Z" fill="#2c3742" stroke="#2c3742"></path><path d="M395.4 132L290.3 115L266.3 266Z" fill="#2c3843" stroke="#2c3843"></path><path d="M389.4 0L290.3 115L395.4 132Z" fill="#2d3844" stroke="#2d3844"></path><path d="M704.7 260L675.7 140L551.6 285Z" fill="#2a3540" stroke="#2a3540"></path><path d="M549.6 0L389.4 0L395.4 132Z" fill="#2b3641" stroke="#2b3641"></path><path d="M145.1 419L257.3 540L271.3 424Z" fill="#29333e" stroke="#29333e"></path><path d="M271.3 424L257.3 540L400.4 540Z" fill="#2c3843" stroke="#2c3843"></path><path d="M535.6 540L694.7 540L703.7 424Z" fill="#2a3540" stroke="#2a3540"></path><path d="M549.6 0L395.4 132L543.6 144Z" fill="#29343f" stroke="#29343f"></path><path d="M675.7 140L549.6 0L543.6 144Z" fill="#2a343f" stroke="#2a343f"></path><path d="M266.3 266L145.1 419L271.3 424Z" fill="#28323d" stroke="#28323d"></path><path d="M122.1 248L145.1 419L266.3 266Z" fill="#2d3945" stroke="#2d3945"></path><path d="M703.7 424L805.9 291L704.7 260Z" fill="#2c3843" stroke="#2c3843"></path><path d="M704.7 260L817.9 149L675.7 140Z" fill="#28323d" stroke="#28323d"></path><path d="M800.9 409L805.9 291L703.7 424Z" fill="#28323d" stroke="#28323d"></path><path d="M803.9 540L800.9 409L703.7 424Z" fill="#2d3945" stroke="#2d3945"></path><path d="M119.1 129L266.3 266L290.3 115Z" fill="#29333e" stroke="#29333e"></path><path d="M119.1 129L122.1 248L266.3 266Z" fill="#2c3742" stroke="#2c3742"></path><path d="M389.4 0L270.3 0L290.3 115Z" fill="#2d3945" stroke="#2d3945"></path><path d="M805.9 291L817.9 149L704.7 260Z" fill="#2a343f" stroke="#2a343f"></path><path d="M675.7 140L700.7 0L549.6 0Z" fill="#2e3a46" stroke="#2e3a46"></path><path d="M960 281L817.9 149L805.9 291Z" fill="#29333e" stroke="#29333e"></path><path d="M0 540L140.1 540L145.1 419Z" fill="#2d3844" stroke="#2d3844"></path><path d="M145.1 419L140.1 540L257.3 540Z" fill="#2c3843" stroke="#2c3843"></path><path d="M817.9 149L700.7 0L675.7 140Z" fill="#29333e" stroke="#29333e"></path><path d="M694.7 540L803.9 540L703.7 424Z" fill="#29343f" stroke="#29343f"></path><path d="M960 399L960 281L805.9 291Z" fill="#2a3540" stroke="#2a3540"></path><path d="M154.1 0L119.1 129L290.3 115Z" fill="#28323d" stroke="#28323d"></path><path d="M270.3 0L154.1 0L290.3 115Z" fill="#28323d" stroke="#28323d"></path><path d="M0 135L122.1 248L119.1 129Z" fill="#2d3844" stroke="#2d3844"></path><path d="M0 135L0 281L122.1 248Z" fill="#2a3540" stroke="#2a3540"></path><path d="M122.1 248L0 392L145.1 419Z" fill="#2a343f" stroke="#2a343f"></path><path d="M0 281L0 392L122.1 248Z" fill="#2e3a46" stroke="#2e3a46"></path><path d="M817.9 149L821.9 0L700.7 0Z" fill="#2c3742" stroke="#2c3742"></path><path d="M960 399L805.9 291L800.9 409Z" fill="#2b3641" stroke="#2b3641"></path><path d="M817.9 149L960 148L821.9 0Z" fill="#2a3540" stroke="#2a3540"></path><path d="M960 540L960 399L800.9 409Z" fill="#29333e" stroke="#29333e"></path><path d="M0 0L0 135L119.1 129Z" fill="#2d3945" stroke="#2d3945"></path><path d="M0 392L0 540L145.1 419Z" fill="#2a3540" stroke="#2a3540"></path><path d="M960 281L960 148L817.9 149Z" fill="#29333e" stroke="#29333e"></path><path d="M803.9 540L960 540L800.9 409Z" fill="#2d3844" stroke="#2d3844"></path><path d="M154.1 0L0 0L119.1 129Z" fill="#28323d" stroke="#28323d"></path><path d="M960 148L960 0L821.9 0Z" fill="#2c3742" stroke="#2c3742"></path></g></svg>