<svg id="visual" viewBox="0 0 540 960" width="540" height="960" xmlns="http://www.w3.org/2000/svg" xmlns:xlink="http://www.w3.org/1999/xlink" version="1.1"><g stroke-width="1" stroke-linejoin="bevel"><path d="M205 459L185 617L353 500Z" fill="#2a3540" stroke="#2a3540"></path><path d="M185 617L361 658L353 500Z" fill="#28323d" stroke="#28323d"></path><path d="M540 499L374 342L353 500Z" fill="#2d3844" stroke="#2d3844"></path><path d="M353 500L374 342L205 459Z" fill="#2d3945" stroke="#2d3945"></path><path d="M0 632L162 773L185 617Z" fill="#29343f" stroke="#29343f"></path><path d="M185 617L162 773L361 658Z" fill="#2e3a46" stroke="#2e3a46"></path><path d="M374 342L188 303L205 459Z" fill="#2a3540" stroke="#2a3540"></path><path d="M205 459L0 488L185 617Z" fill="#2b3642" stroke="#2b3642"></path><path d="M188 303L0 488L205 459Z" fill="#29343f" stroke="#29343f"></path><path d="M0 488L0 632L185 617Z" fill="#2e3a46" stroke="#2e3a46"></path><path d="M540 633L540 499L353 500Z" fill="#2d3844" stroke="#2d3844"></path><path d="M384 815L540 633L361 658Z" fill="#28323d" stroke="#28323d"></path><path d="M361 658L540 633L353 500Z" fill="#28323d" stroke="#28323d"></path><path d="M162 773L384 815L361 658Z" fill="#2c3743" stroke="#2c3743"></path><path d="M540 499L540 326L374 342Z" fill="#2b3642" stroke="#2b3642"></path><path d="M350 144L186 143L188 303Z" fill="#28323d" stroke="#28323d"></path><path d="M188 303L0 295L0 488Z" fill="#28323d" stroke="#28323d"></path><path d="M0 632L0 815L162 773Z" fill="#28323d" stroke="#28323d"></path><path d="M162 773L340 960L384 815Z" fill="#2e3a46" stroke="#2e3a46"></path><path d="M384 815L540 817L540 633Z" fill="#2d3945" stroke="#2d3945"></path><path d="M540 960L540 817L384 815Z" fill="#29343f" stroke="#29343f"></path><path d="M350 144L188 303L374 342Z" fill="#2d3945" stroke="#2d3945"></path><path d="M188 303L0 177L0 295Z" fill="#2b3641" stroke="#2b3641"></path><path d="M540 326L350 144L374 342Z" fill="#2b3642" stroke="#2b3642"></path><path d="M177 960L340 960L162 773Z" fill="#2c3743" stroke="#2c3743"></path><path d="M0 815L177 960L162 773Z" fill="#2a3540" stroke="#2a3540"></path><path d="M186 143L0 177L188 303Z" fill="#2b3642" stroke="#2b3642"></path><path d="M0 815L0 960L177 960Z" fill="#2b3641" stroke="#2b3641"></path><path d="M540 326L540 139L350 144Z" fill="#28323d" stroke="#28323d"></path><path d="M350 144L170 0L186 143Z" fill="#2b3641" stroke="#2b3641"></path><path d="M340 960L540 960L384 815Z" fill="#2b3642" stroke="#2b3642"></path><path d="M386 0L170 0L350 144Z" fill="#29343f" stroke="#29343f"></path><path d="M186 143L0 0L0 177Z" fill="#29343f" stroke="#29343f"></path><path d="M540 139L386 0L350 144Z" fill="#2d3945" stroke="#2d3945"></path><path d="M170 0L0 0L186 143Z" fill="#2a3540" stroke="#2a3540"></path><path d="M540 139L540 0L386 0Z" fill="#2c3743" stroke="#2c3743"></path></g></svg>