<?xml version="1.0" encoding="UTF-8"?>
<svg id="Layer_1" data-name="Layer 1" xmlns="http://www.w3.org/2000/svg" viewBox="0 0 252.26 57.05">
  <defs>
    <style>
      .cls-1 {
        fill: #fff;
      }
    </style>
  </defs>
  <path class="cls-1" d="m0,0h48.14v2.26l-.18.25L11.59,54.43h36.54v2.54H0v-2.54L36.37,2.51H0V0Z"/>
  <path class="cls-1" d="m96.2.08v2.51h-28.49v24.7h18.98v2.54h-18.98v24.67h28.49v2.54h-37.99V.08h37.99Z"/>
  <path class="cls-1" d="m112.13,0l16.51,23.5L148.36,0h3.32l-21.56,25.66v31.31h-9.47v-28.31L100.57,0h11.56Z"/>
  <path class="cls-1" d="m166.18,11.24l-8.06,17.25-13.25,28.49h-2.79l13.25-28.49,9.47-20.25,3.82-8.23h2.79l13.29,28.49,13.29,28.49h-10.46l-13.29-28.49-8.06-17.25Z"/>
  <path class="cls-1" d="m223.73.08c7.87,0,14.59,2.79,20.16,8.36,5.57,5.57,8.36,12.28,8.36,20.13s-2.79,14.58-8.36,20.15c-5.57,5.56-12.29,8.34-20.16,8.34h-19.62V.08h19.62Zm0,54.43c5.23,0,9.71-2.53,13.43-7.6,3.72-5.07,5.58-11.18,5.58-18.34s-1.86-13.28-5.58-18.36c-3.72-5.08-8.2-7.62-13.43-7.62h-10.11v51.92h10.11Z"/>
</svg>