<?xml version="1.0" standalone="no"?>
<!DOCTYPE svg PUBLIC "-//W3C//DTD SVG 20010904//EN"
 "http://www.w3.org/TR/2001/REC-SVG-20010904/DTD/svg10.dtd">
<svg version="1.0" xmlns="http://www.w3.org/2000/svg"
 width="700.000000pt" height="700.000000pt" viewBox="0 0 700.000000 700.000000"
 preserveAspectRatio="xMidYMid meet">
<metadata>
Created by potrace 1.14, written by Peter Selinger 2001-2017
</metadata>
<g transform="translate(0.000000,700.000000) scale(0.100000,-0.100000)"
fill="#000000" stroke="none">
<path d="M0 3500 l0 -3500 3500 0 3500 0 0 3500 0 3500 -3500 0 -3500 0 0
-3500z m3630 1567 l0 -64 -1016 -1418 c-558 -779 -1014 -1419 -1012 -1420 2
-2 530 295 1175 658 l1172 662 3 820 3 820 1083 3 1082 2 0 -75 0 -75 -810 0
-810 0 0 -705 0 -705 540 0 540 0 0 -70 0 -70 -540 0 -540 0 0 -705 0 -705
810 0 810 0 0 -75 0 -75 -1082 2 -1083 3 -3 713 c-1 391 -4 712 -7 712 -2 0
-569 -322 -1259 -715 l-1254 -715 -276 0 -276 0 0 78 0 77 1034 1475 1034
1475 -1034 3 -1034 2 0 75 0 75 1375 0 1375 0 0 -63z"/>
</g>
</svg>
