<svg xmlns="http://www.w3.org/2000/svg" viewBox="0 0 24 24" id="sass"><path fill="#ffffff" d="M12 24C5.383 24 0 18.617 0 12S5.383 0 12 0s12 5.383 12 12-5.383 12-12 12zm0-23C5.935 1 1 5.935 1 12s4.935 11 11 11 11-4.935 11-11S18.065 1 12 1z"></path><path fill="#ffffff" d="M7.718 19.749c-.298 0-.568-.069-.788-.218-.38-.256-.891-.919-.05-2.48.474-.879 1.249-1.611 2.197-2.107a9.97 9.97 0 0 0-1.335-.87c-1.367-.763-2.072-1.938-1.985-3.31.143-2.237 2.333-4.581 5.451-5.832 2.773-1.113 5.558-.831 6.619.669.371.524 1.029 1.98-.883 4.16-.868.988-2.15 1.57-3.61 1.638-1.389.061-2.756-.351-3.5-1.056a.501.501 0 0 1-.02-.707.501.501 0 0 1 .707-.02c.54.511 1.655.82 2.767.783 1.186-.055 2.218-.516 2.904-1.299 1.03-1.174 1.321-2.212.818-2.922-.667-.944-2.8-1.374-5.43-.319-2.725 1.094-4.709 3.137-4.826 4.968-.062.979.448 1.8 1.475 2.373.812.452 1.432.885 1.884 1.317.2-.061.404-.112.612-.154 1.301-.255 2.473-.057 3.222.553.507.414.785.915.824 1.488.073 1.062-.739 1.949-.774 1.987a.499.499 0 1 1-.733-.68c.155-.17.548-.723.51-1.243-.021-.288-.171-.543-.459-.777-.5-.409-1.417-.544-2.395-.347l-.131.027c.123.228.205.458.249.695.138.738-.118 1.506-.763 2.282-.726.877-1.743 1.401-2.557 1.401zm2.096-4.05c-.895.405-1.638 1.055-2.054 1.826-.392.727-.375 1.107-.272 1.177.27.183 1.282-.106 2.018-.991.451-.545.632-1.021.55-1.46a1.512 1.512 0 0 0-.242-.552z"></path></svg>